<svg width="225" height="64" viewBox="0 0 225 64" fill="none" xmlns="http://www.w3.org/2000/svg">
<g clip-path="url(#clip0_171_161)">
<path d="M8.31445 0.629486H216.186C220.586 0.62967 224 3.93153 224 8.09726V55.9029C224 60.0686 220.586 63.3705 216.186 63.3707H8.31445C3.91417 63.3705 0.500008 60.0686 0.5 55.9029V8.09726C0.5 3.93153 3.91416 0.629667 8.31445 0.629486Z" stroke="white"/>
<path d="M78.8245 16.3835C78.8245 17.6583 78.4919 18.7737 77.6604 19.5705C76.6626 20.5266 75.4985 21.0047 74.0019 21.0047C72.5052 21.0047 71.3411 20.5266 70.3433 19.5705C69.3456 18.6144 68.8467 17.4989 68.8467 16.0647C68.8467 14.6306 69.3456 13.5151 70.3433 12.559C71.3411 11.6029 72.5052 11.1248 74.0019 11.1248C74.667 11.1248 75.3322 11.2842 75.9974 11.6029C76.6626 11.9216 77.1615 12.2403 77.4941 12.7183L76.6626 13.5151C75.9974 12.7183 75.1659 12.3996 74.0019 12.3996C73.0041 12.3996 72.0063 12.7183 71.3411 13.5151C70.5096 14.1525 70.177 15.1086 70.177 16.2241C70.177 17.3396 70.5096 18.2957 71.3411 18.9331C72.1726 19.5705 73.0041 20.0486 74.0019 20.0486C75.1659 20.0486 75.9974 19.7299 76.8289 18.9331C77.3278 18.455 77.6604 17.8176 77.6604 17.0209H74.0019V15.746H78.8245V16.3835ZM86.4741 12.3996H81.9841V15.4273H86.1415V16.5428H81.9841V19.5705H86.4741V20.8453H80.6537V11.2842H86.4741V12.3996ZM91.9619 20.8453H90.6315V12.3996H87.8045V11.2842H94.7889V12.3996H91.9619V20.8453ZM99.6115 20.8453V11.2842H100.942V20.8453H99.6115ZM106.596 20.8453H105.266V12.3996H102.439V11.2842H109.257V12.3996H106.43V20.8453H106.596ZM122.394 19.5705C121.396 20.5266 120.232 21.0047 118.736 21.0047C117.239 21.0047 116.075 20.5266 115.077 19.5705C114.079 18.6144 113.58 17.4989 113.58 16.0647C113.58 14.6306 114.079 13.5151 115.077 12.559C116.075 11.6029 117.239 11.1248 118.736 11.1248C120.232 11.1248 121.396 11.6029 122.394 12.559C123.392 13.5151 123.891 14.6306 123.891 16.0647C123.891 17.4989 123.392 18.6144 122.394 19.5705ZM116.075 18.7737C116.74 19.4112 117.738 19.8892 118.736 19.8892C119.733 19.8892 120.731 19.5705 121.396 18.7737C122.061 18.1363 122.56 17.1802 122.56 16.0647C122.56 14.9493 122.228 13.9932 121.396 13.3558C120.731 12.7183 119.733 12.2403 118.736 12.2403C117.738 12.2403 116.74 12.559 116.075 13.3558C115.41 13.9932 114.911 14.9493 114.911 16.0647C114.911 17.1802 115.243 18.1363 116.075 18.7737ZM125.72 20.8453V11.2842H127.217L132.039 18.7737V11.2842H133.37V20.8453H132.039L126.884 13.037V20.8453H125.72Z" fill="white" stroke="white" stroke-width="1.18519" stroke-miterlimit="10"/>
<path d="M113.248 34.8684C109.257 34.8684 106.097 37.7367 106.097 41.7205C106.097 45.545 109.257 48.5727 113.248 48.5727C117.239 48.5727 120.398 45.7043 120.398 41.7205C120.398 37.5774 117.239 34.8684 113.248 34.8684ZM113.248 45.7043C111.086 45.7043 109.257 43.9515 109.257 41.5612C109.257 39.1709 111.086 37.418 113.248 37.418C115.41 37.418 117.239 39.0115 117.239 41.5612C117.239 43.9515 115.41 45.7043 113.248 45.7043ZM97.7821 34.8684C93.791 34.8684 90.6314 37.7367 90.6314 41.7205C90.6314 45.545 93.791 48.5727 97.7821 48.5727C101.773 48.5727 104.933 45.7043 104.933 41.7205C104.933 37.5774 101.773 34.8684 97.7821 34.8684ZM97.7821 45.7043C95.6202 45.7043 93.791 43.9515 93.791 41.5612C93.791 39.1709 95.6202 37.418 97.7821 37.418C99.944 37.418 101.773 39.0115 101.773 41.5612C101.773 43.9515 99.944 45.7043 97.7821 45.7043ZM79.3232 36.9399V39.8083H86.474C86.3077 41.4018 85.6425 42.6766 84.811 43.4734C83.8132 44.4295 82.1503 45.545 79.3232 45.545C74.8332 45.545 71.5073 42.1986 71.5073 37.8961C71.5073 33.5935 74.9995 30.2471 79.3232 30.2471C81.6514 30.2471 83.4806 31.2032 84.811 32.3187L86.9728 30.2471C85.1436 28.6536 82.8154 27.3788 79.4895 27.3788C73.5028 27.3788 68.3477 32.1594 68.3477 37.8961C68.3477 43.6328 73.5028 48.4133 79.4895 48.4133C82.8154 48.4133 85.1436 47.4572 87.1391 45.3856C89.1347 43.4734 89.7999 40.7644 89.7999 38.6928C89.7999 38.0554 89.7999 37.418 89.6336 36.9399H79.3232ZM154.822 39.1709C154.157 37.5774 152.494 34.8684 148.835 34.8684C145.177 34.8684 142.183 37.5774 142.183 41.7205C142.183 45.545 145.177 48.5727 149.168 48.5727C152.327 48.5727 154.323 46.6605 154.988 45.545L152.66 43.9515C151.828 45.0669 150.831 45.8637 149.168 45.8637C147.505 45.8637 146.507 45.2263 145.675 43.7921L155.154 39.9676L154.822 39.1709ZM145.177 41.4018C145.177 38.8522 147.338 37.418 148.835 37.418C149.999 37.418 151.163 38.0554 151.496 38.8522L145.177 41.4018ZM137.361 47.9353H140.52V28.0162H137.361V47.9353ZM132.372 36.3025C131.54 35.5058 130.21 34.709 128.547 34.709C125.055 34.709 121.729 37.7367 121.729 41.5612C121.729 45.3856 124.888 48.254 128.547 48.254C130.21 48.254 131.54 47.4572 132.205 46.6605H132.372V47.6166C132.372 50.1662 130.875 51.6004 128.547 51.6004C126.718 51.6004 125.387 50.3256 125.055 49.2101L122.394 50.3256C123.225 52.0784 125.221 54.3094 128.713 54.3094C132.372 54.3094 135.365 52.2378 135.365 47.2979V35.1871H132.372V36.3025ZM128.713 45.7043C126.551 45.7043 124.722 43.9515 124.722 41.5612C124.722 39.1709 126.551 37.418 128.713 37.418C130.875 37.418 132.538 39.1709 132.538 41.5612C132.538 43.9515 130.875 45.7043 128.713 45.7043ZM169.29 28.0162H161.806V47.9353H164.966V40.4457H169.29C172.782 40.4457 176.108 38.0554 176.108 34.2309C176.108 30.4065 172.782 28.0162 169.29 28.0162ZM169.456 37.5774H164.966V30.7252H169.456C171.784 30.7252 173.114 32.6374 173.114 34.0716C172.948 35.8245 171.618 37.5774 169.456 37.5774ZM188.58 34.709C186.252 34.709 183.924 35.6651 183.092 37.7367L185.919 38.8522C186.584 37.7367 187.582 37.418 188.746 37.418C190.409 37.418 191.906 38.3741 192.072 39.9676V40.127C191.573 39.8083 190.243 39.3302 188.912 39.3302C185.919 39.3302 182.926 40.9238 182.926 43.7921C182.926 46.5011 185.42 48.254 188.081 48.254C190.243 48.254 191.241 47.2979 192.072 46.3417H192.238V47.9353H195.232V40.2863C194.899 36.7806 192.072 34.709 188.58 34.709ZM188.247 45.7043C187.25 45.7043 185.753 45.2263 185.753 43.9515C185.753 42.3579 187.582 41.8799 189.079 41.8799C190.409 41.8799 191.074 42.1986 191.906 42.5173C191.573 44.4295 189.91 45.7043 188.247 45.7043ZM205.708 35.1871L202.216 43.7921H202.05L198.391 35.1871H195.065L200.553 47.2979L197.394 53.9907H200.553L209.034 35.1871H205.708ZM177.771 47.9353H180.93V28.0162H177.771V47.9353Z" fill="white"/>
<path d="M17.2948 12.0809C16.7959 12.559 16.6296 13.3558 16.6296 14.3119V49.5288C16.6296 50.4849 16.9622 51.2817 17.4611 51.7597L17.6274 51.9191L38.2482 32.1594V31.8407L17.2948 12.0809Z" fill="url(#paint0_linear_171_161)"/>
<path d="M44.8999 38.8522L38.0818 32.3187V31.8406L44.8999 25.3072L45.0662 25.4665L53.2148 29.9284C55.5429 31.2032 55.5429 33.2748 53.2148 34.5496L44.8999 38.8522Z" fill="url(#paint1_linear_171_161)"/>
<path d="M45.0664 38.6928L38.082 32L17.2949 51.9191C18.1264 52.7158 19.2905 52.7158 20.7871 52.0784L45.0664 38.6928Z" fill="url(#paint2_linear_171_161)"/>
<path d="M45.0664 25.3072L20.7871 12.0809C19.2905 11.2842 18.1264 11.4435 17.2949 12.2403L38.082 32L45.0664 25.3072Z" fill="url(#paint3_linear_171_161)"/>
<path opacity="0.2" d="M44.9001 38.5334L20.7871 51.6004C19.4568 52.3971 18.2927 52.2378 17.4612 51.6004L17.2949 51.7597L17.4612 51.9191C18.2927 52.5565 19.4568 52.7158 20.7871 51.9191L44.9001 38.5334Z" fill="black"/>
<path opacity="0.12" d="M17.2948 51.6004C16.7959 51.1223 16.6296 50.3256 16.6296 49.3694V49.5288C16.6296 50.4849 16.9622 51.2817 17.4611 51.7597V51.6004H17.2948ZM53.2148 34.0716L44.9 38.5335L45.0663 38.6928L53.2148 34.2309C54.3789 33.5935 54.8778 32.7968 54.8778 32C54.8778 32.7968 54.2126 33.4342 53.2148 34.0716Z" fill="black"/>
<path opacity="0.25" d="M20.787 12.2403L53.2148 29.9284C54.2126 30.5658 54.8778 31.2032 54.8778 32C54.8778 31.2032 54.3789 30.4065 53.2148 29.7691L20.787 12.0809C18.4589 10.8061 16.6296 11.7622 16.6296 14.3119V14.4712C16.6296 12.0809 18.4589 10.9654 20.787 12.2403Z" fill="white"/>
</g>
<defs>
<linearGradient id="paint0_linear_171_161" x1="36.2526" y1="14.0091" x2="9.53269" y2="41.8916" gradientUnits="userSpaceOnUse">
<stop stop-color="#00A0FF"/>
<stop offset="0.007" stop-color="#00A1FF"/>
<stop offset="0.26" stop-color="#00BEFF"/>
<stop offset="0.512" stop-color="#00D2FF"/>
<stop offset="0.76" stop-color="#00DFFF"/>
<stop offset="1" stop-color="#00E3FF"/>
</linearGradient>
<linearGradient id="paint1_linear_171_161" x1="56.2646" y1="32.0016" x2="16.0259" y2="32.0016" gradientUnits="userSpaceOnUse">
<stop stop-color="#FFE000"/>
<stop offset="0.409" stop-color="#FFBD00"/>
<stop offset="0.775" stop-color="#FFA500"/>
<stop offset="1" stop-color="#FF9C00"/>
</linearGradient>
<linearGradient id="paint2_linear_171_161" x1="41.2865" y1="35.6587" x2="5.05398" y2="73.47" gradientUnits="userSpaceOnUse">
<stop stop-color="#FF3A44"/>
<stop offset="1" stop-color="#C31162"/>
</linearGradient>
<linearGradient id="paint3_linear_171_161" x1="12.1347" y1="0.409944" x2="28.315" y2="17.2953" gradientUnits="userSpaceOnUse">
<stop stop-color="#32A071"/>
<stop offset="0.069" stop-color="#2DA771"/>
<stop offset="0.476" stop-color="#15CF74"/>
<stop offset="0.801" stop-color="#06E775"/>
<stop offset="1" stop-color="#00F076"/>
</linearGradient>
<clipPath id="clip0_171_161">
<rect width="224.5" height="64" fill="white"/>
</clipPath>
</defs>
</svg>
