<?xml version="1.0" encoding="utf-8"?>
<!-- Generator: Adobe Illustrator 19.2.1, SVG Export Plug-In . SVG Version: 6.00 Build 0)  -->
<svg version="1.1" id="Layer_1" xmlns="http://www.w3.org/2000/svg" xmlns:xlink="http://www.w3.org/1999/xlink" x="0px" y="0px"
	 viewBox="0 0 18 18" style="enable-background:new 0 0 18 18;" xml:space="preserve">
<style type="text/css">
	.st0{fill:#FFFFFF;}
</style>
<path class="st0" d="M17.6,15.9c-0.3-0.4-0.5-0.7-0.7-1.2c-0.4-1.4,0.1-3.1,0.1-3.1l0,0c0.3-0.9,0.4-1.8,0.4-2.8
	C17.4,4,13.5,0,8.7,0C3.9,0,0,4,0,8.8c0,3.8,2.3,7,5.6,8.3l0,0c0,0,0,0,0.1,0c0.4,0.2,0.9,0.3,1.3,0.4c1.8,0.4,5.2,0.9,10,0.1
	C18.2,17.4,18.2,16.6,17.6,15.9z M10.3,10.8H7c-0.3,0-0.6-0.3-0.6-0.6c0-0.3,0.3-0.6,0.6-0.6h3.2c0.3,0,0.6,0.3,0.6,0.6
	C10.9,10.6,10.6,10.8,10.3,10.8z M11.7,8.5H7c-0.3,0-0.6-0.3-0.6-0.6c0-0.3,0.3-0.6,0.6-0.6h4.6c0.3,0,0.6,0.3,0.6,0.6
	C12.2,8.3,12,8.5,11.7,8.5z"/>
</svg>
