<?xml version="1.0" encoding="utf-8"?>
<!-- Generator: Adobe Illustrator 19.2.1, SVG Export Plug-In . SVG Version: 6.00 Build 0)  -->
<svg version="1.1" id="Layer_1" xmlns="http://www.w3.org/2000/svg" xmlns:xlink="http://www.w3.org/1999/xlink" x="0px" y="0px"
	 viewBox="0 0 186 53" style="enable-background:new 0 0 186 53;" xml:space="preserve">
<style type="text/css">
	.st0{fill:#FFFFFF;}
</style>
<path class="st0" d="M37.9,16.2c3.6,0,5.8,3.5,5.8,3.5s-3.5,1.9-3.5,6c0,4.9,4.4,6.3,4.4,6.3s-3.5,8.2-7.3,8.2
	c-2.1,0-2.3-1.3-5.2-1.3c-2.5,0-3.4,1.3-5.2,1.3c-3.7,0-8.3-8-8.3-14.5c0-6.8,4.7-9.5,7.7-9.5c2.6,0,3.7,1.5,5.8,1.5
	C33.9,17.7,35.3,16.2,37.9,16.2z M37.3,9.3c0.5,3.3-2.4,7.5-6,7.3C30.7,12.4,34.6,9.5,37.3,9.3z"/>
<path class="st0" d="M62.4,12c0.7-0.1,1.5-0.2,2.5-0.2c1.7,0,2.9,0.4,3.8,1.2c0.8,0.8,1.3,1.8,1.3,3.3c0,1.5-0.5,2.7-1.4,3.6
	c-0.9,0.9-2.3,1.4-4.1,1.4c-0.9,0-1.5,0-2.1-0.1V12z M63.7,20.2c0.3,0.1,0.8,0.1,1.2,0.1c2.5,0,4-1.5,4-3.9c0-2.1-1.3-3.6-3.8-3.6
	c-0.6,0-1.1,0.1-1.4,0.1C63.7,12.9,63.7,20.2,63.7,20.2z"/>
<path class="st0" d="M77.3,17.8c0,2.4-1.7,3.5-3.3,3.5c-1.7,0-3.2-1.4-3.2-3.4c0-2.2,1.5-3.5,3.3-3.5C76.1,14.4,77.3,15.8,77.3,17.8
	z M72.1,17.8c0,1.5,0.9,2.5,2,2.5c1.2,0,2-1.1,2-2.6c0-1.2-0.6-2.5-1.9-2.5C72.7,15.3,72.1,16.6,72.1,17.8z"/>
<path class="st0" d="M79.2,14.6l0.9,3.4c0.2,0.8,0.4,1.5,0.5,2.1l0,0c0.2-0.7,0.4-1.4,0.6-2.1l1.1-3.4h1l1.1,3.3
	c0.3,0.8,0.5,1.5,0.6,2.1l0,0c0.1-0.7,0.3-1.4,0.5-2.1l1-3.3h1.2l-2.1,6.6h-1.1l-1-3.2c-0.2-0.8-0.4-1.4-0.6-2.1l0,0
	c-0.2,0.8-0.4,1.5-0.6,2.2l-1.1,3.1H80l-2-6.6C78,14.6,79.2,14.6,79.2,14.6z"/>
<path class="st0" d="M88.3,16.3c0-0.7,0-1.3-0.1-1.7h1.1l0.1,1.1l0,0c0.3-0.6,1.1-1.3,2.2-1.3c0.9,0,2.3,0.6,2.3,2.8v4h-1.2v-3.8
	c0-1.1-0.4-1.9-1.5-1.9c-0.8,0-1.5,0.6-1.6,1.3c-0.1,0.2-0.1,0.4-0.1,0.6v4h-1.2L88.3,16.3L88.3,16.3z"/>
<path class="st0" d="M95.3,11.5h1.2v9.7h-1.2V11.5z"/>
<path class="st0" d="M104.6,17.8c0,2.4-1.7,3.5-3.3,3.5c-1.7,0-3.2-1.4-3.2-3.4c0-2.2,1.5-3.5,3.3-3.5
	C103.2,14.4,104.6,15.8,104.6,17.8z M99.3,17.8c0,1.5,0.9,2.5,2,2.5c1.2,0,2-1.1,2-2.6c0-1.2-0.6-2.5-1.9-2.5
	C100,15.3,99.3,16.6,99.3,17.8z"/>
<path class="st0" d="M110.4,21.1l-0.1-0.9l0,0c-0.4,0.5-1.1,1-2,1c-1.4,0-2-1-2-1.9c0-1.6,1.5-2.5,4-2.4v-0.1c0-0.6-0.2-1.5-1.5-1.5
	c-0.6,0-1.3,0.2-1.7,0.5l-0.3-0.8c0.6-0.4,1.4-0.6,2.1-0.6c2,0,2.5,1.4,2.5,2.7v2.5c0,0.6,0,1.2,0.1,1.5H110.4z M110.2,17.8
	c-1.4,0-2.8,0.2-2.8,1.5c0,0.8,0.5,1.2,1.2,1.2c0.9,0,1.5-0.6,1.6-1.1c0-0.1,0.1-0.3,0.1-0.4L110.2,17.8L110.2,17.8z"/>
<path class="st0" d="M119.6,11.5v8c0,0.6,0,1.3,0.1,1.7h-1.1l-0.1-1.2l0,0c-0.4,0.8-1.2,1.3-2.2,1.3c-1.6,0-2.8-1.4-2.8-3.4
	c0-2.2,1.4-3.6,3-3.6c1,0,1.7,0.5,2,1l0,0v-4L119.6,11.5C119.6,11.4,119.6,11.5,119.6,11.5z M118.3,17.3c0-0.2,0-0.4-0.1-0.5
	c-0.2-0.8-0.9-1.4-1.7-1.4c-1.3,0-1.9,1.1-1.9,2.5c0,1.4,0.7,2.4,1.9,2.4c0.8,0,1.5-0.5,1.7-1.5c0-0.2,0.1-0.3,0.1-0.5V17.3z"/>
<path class="st0" d="M130.4,17.8c0,2.4-1.7,3.5-3.3,3.5c-1.7,0-3.2-1.4-3.2-3.4c0-2.2,1.5-3.5,3.3-3.5
	C129.2,14.4,130.4,15.8,130.4,17.8z M125.2,17.8c0,1.5,0.9,2.5,2,2.5c1.2,0,2-1.1,2-2.6c0-1.2-0.6-2.5-1.9-2.5
	C125.8,15.3,125.2,16.6,125.2,17.8z"/>
<path class="st0" d="M132,16.3c0-0.7,0-1.3-0.1-1.7h1.1l0.1,1.1l0,0c0.3-0.6,1.1-1.3,2.2-1.3c0.9,0,2.3,0.6,2.3,2.8v4h-1.2v-3.8
	c0-1.1-0.4-1.9-1.5-1.9c-0.8,0-1.5,0.6-1.6,1.3c-0.1,0.2-0.1,0.4-0.1,0.6v4H132V16.3z"/>
<path class="st0" d="M144.5,12.6v1.9h1.7v0.9h-1.7V19c0,0.8,0.2,1.3,0.9,1.3c0.3,0,0.6,0,0.7-0.1l0.1,0.9c-0.2,0.1-0.6,0.2-1.1,0.2
	c-0.6,0-1-0.2-1.3-0.5c-0.4-0.4-0.5-1-0.5-1.7v-3.6h-1.1v-0.9h1.1V13L144.5,12.6z"/>
<path class="st0" d="M147.2,11.5h1.2v4.2l0,0c0.2-0.4,0.5-0.7,0.9-0.9c0.4-0.2,0.8-0.4,1.3-0.4c0.9,0,2.3,0.6,2.3,2.8v4h-1.2v-3.8
	c0-1.1-0.4-1.9-1.5-1.9c-0.8,0-1.4,0.6-1.6,1.2c-0.1,0.2-0.1,0.4-0.1,0.6v4h-1.2V11.5z"/>
<path class="st0" d="M156.4,18c0,1.6,1.1,2.3,2.2,2.3c0.9,0,1.4-0.2,1.8-0.4l0.2,0.9c-0.4,0.2-1.2,0.4-2.2,0.4c-2,0-3.3-1.4-3.3-3.3
	c0-2,1.2-3.6,3.1-3.6c2.1,0,2.7,1.9,2.7,3.1c0,0.3,0,0.5,0,0.6H156.4z M159.9,17.2c0-0.8-0.3-1.9-1.6-1.9c-1.3,0-1.7,1.2-1.8,1.9
	H159.9z"/>
<path class="st0" d="M65.5,36.8l-1.5,4.7H61L66.3,25h3.9l5.4,16.5h-3.3l-1.5-4.7L65.5,36.8L65.5,36.8z M70.3,34.5L69,30.4
	c-0.3-1-0.6-2.1-0.9-3.1H68c-0.3,1-0.5,2.1-0.8,3.1L66,34.5H70.3z"/>
<path class="st0" d="M77.5,33.5c0-1.5-0.1-2.8-0.1-4H80l0.2,1.8h0.1c0.9-1.4,2.3-2.1,4.1-2.1c2.7,0,5,2.3,5,6.1
	c0,4.4-2.7,6.4-5.4,6.4c-1.5,0-2.7-0.7-3.4-1.6h-0.1v6.2h-3V33.5z M80.5,36.5c0,0.3,0,0.6,0.1,0.9c0.3,1.3,1.4,2.1,2.6,2.1
	c1.9,0,3.1-1.6,3.1-4c0-2.1-1.1-3.9-3-3.9c-1.3,0-2.4,0.9-2.7,2.2c-0.1,0.3-0.1,0.5-0.1,0.8C80.5,34.7,80.5,36.5,80.5,36.5z"/>
<path class="st0" d="M92.4,33.5c0-1.5-0.1-2.8-0.1-4h2.6l0.2,1.8h0.1c0.9-1.4,2.3-2.1,4.1-2.1c2.7,0,5,2.3,5,6.1
	c0,4.4-2.7,6.4-5.4,6.4c-1.5,0-2.7-0.7-3.4-1.6h-0.1v6.2h-3C92.4,46.3,92.4,33.5,92.4,33.5z M95.5,36.5c0,0.3,0,0.6,0.1,0.9
	c0.3,1.3,1.4,2.1,2.6,2.1c1.9,0,3.1-1.6,3.1-4c0-2.1-1.1-3.9-3-3.9c-1.3,0-2.4,0.9-2.7,2.2c-0.1,0.3-0.1,0.5-0.1,0.8
	C95.5,34.7,95.5,36.5,95.5,36.5z"/>
<path class="st0" d="M112,38.2c1,0.6,2.4,1.1,4,1.1c1.9,0,3-0.9,3-2.2c0-1.3-0.9-2-2.9-2.7c-2.7-1-4.5-2.4-4.5-4.8
	c0-2.7,2.2-4.7,5.8-4.7c1.8,0,3.1,0.4,4,0.9l-0.8,2.4c-0.6-0.3-1.7-0.8-3.3-0.8c-1.9,0-2.7,1.1-2.7,2c0,1.3,1,1.8,3.2,2.7
	c2.9,1.1,4.3,2.5,4.3,4.9c0,2.6-2,4.9-6.3,4.9c-1.7,0-3.6-0.5-4.5-1.1L112,38.2z"/>
<path class="st0" d="M128.3,26.1v3.4h2.9v2.2h-2.9V37c0,1.5,0.4,2.2,1.5,2.2c0.5,0,0.9-0.1,1.2-0.2l0.1,2.3
	c-0.5,0.2-1.3,0.3-2.2,0.3c-1.1,0-2-0.4-2.6-1c-0.7-0.7-1-1.7-1-3.4v-5.6h-1.7v-2.2h1.7v-2.7L128.3,26.1z"/>
<path class="st0" d="M144.4,35.4c0,4.4-3.1,6.4-6.2,6.4c-3.4,0-6-2.3-6-6.2c0-4,2.6-6.4,6.2-6.4C142.1,29.3,144.4,31.8,144.4,35.4z
	 M135.4,35.6c0,2.3,1.2,4.1,3,4.1c1.7,0,2.9-1.7,2.9-4.1c0-1.8-0.9-4-2.9-4C136.2,31.5,135.4,33.5,135.4,35.6z"/>
<path class="st0" d="M146.9,33.4c0-1.6,0-2.8-0.1-3.9h2.6l0.1,2.3h0.1c0.6-1.7,2-2.5,3.3-2.5c0.3,0,0.5,0,0.7,0.1v2.8
	c-0.3-0.1-0.5-0.1-0.9-0.1c-1.5,0-2.4,1-2.7,2.3c-0.1,0.3-0.1,0.6-0.1,1v6.2h-3L146.9,33.4L146.9,33.4z"/>
<path class="st0" d="M157.7,36.3c0.1,2.1,1.7,3.1,3.7,3.1c1.4,0,2.4-0.2,3.3-0.6l0.5,2.1c-1.1,0.4-2.4,0.8-4.2,0.8
	c-3.9,0-6.2-2.4-6.2-6.1c0-3.3,2-6.5,5.8-6.5c3.9,0,5.1,3.2,5.1,5.8c0,0.6-0.1,1-0.1,1.3L157.7,36.3L157.7,36.3z M163.1,34.3
	c0-1.1-0.5-2.9-2.5-2.9c-1.8,0-2.6,1.7-2.8,2.9H163.1z"/>
</svg>
