<svg width="469" height="21" viewBox="0 0 469 21" fill="none" xmlns="http://www.w3.org/2000/svg">
<line y1="12.375" x2="184" y2="12.375" stroke="white"/>
<path d="M199.712 12.491C200.309 12.6297 200.768 12.8697 201.088 13.211C201.419 13.5523 201.584 13.9683 201.584 14.459C201.584 14.9497 201.413 15.387 201.072 15.771C200.741 16.155 200.288 16.4537 199.712 16.667C199.136 16.8697 198.501 16.971 197.808 16.971C197.2 16.971 196.603 16.8857 196.016 16.715C195.429 16.5337 194.917 16.2723 194.48 15.931L194.864 15.083C195.248 15.371 195.696 15.595 196.208 15.755C196.72 15.915 197.237 15.995 197.76 15.995C198.539 15.995 199.173 15.851 199.664 15.563C200.165 15.2643 200.416 14.8643 200.416 14.363C200.416 13.915 200.213 13.5683 199.808 13.323C199.403 13.067 198.848 12.939 198.144 12.939H196.704V12.107H198.08C198.709 12.107 199.216 11.9897 199.6 11.755C199.984 11.5097 200.176 11.1843 200.176 10.779C200.176 10.331 199.957 9.979 199.52 9.723C199.093 9.467 198.533 9.339 197.84 9.339C196.933 9.339 196.037 9.56833 195.152 10.027L194.832 9.147C195.835 8.62433 196.875 8.363 197.952 8.363C198.592 8.363 199.168 8.459 199.68 8.651C200.203 8.83233 200.608 9.09367 200.896 9.435C201.195 9.77633 201.344 10.171 201.344 10.619C201.344 11.0457 201.195 11.4243 200.896 11.755C200.608 12.0857 200.213 12.331 199.712 12.491ZM207.059 8.395C208.158 8.395 209 8.67233 209.587 9.227C210.174 9.771 210.467 10.5817 210.467 11.659V16.875H209.379V15.563C209.123 16.0003 208.744 16.3417 208.243 16.587C207.752 16.8323 207.166 16.955 206.483 16.955C205.544 16.955 204.798 16.731 204.243 16.283C203.688 15.835 203.411 15.243 203.411 14.507C203.411 13.7923 203.667 13.2163 204.179 12.779C204.702 12.3417 205.528 12.123 206.659 12.123H209.331V11.611C209.331 10.8857 209.128 10.3363 208.723 9.963C208.318 9.579 207.726 9.387 206.947 9.387C206.414 9.387 205.902 9.47767 205.411 9.659C204.92 9.82967 204.499 10.0697 204.147 10.379L203.635 9.531C204.062 9.16833 204.574 8.891 205.171 8.699C205.768 8.49633 206.398 8.395 207.059 8.395ZM206.659 16.059C207.299 16.059 207.848 15.915 208.307 15.627C208.766 15.3283 209.107 14.9017 209.331 14.347V12.971H206.691C205.251 12.971 204.531 13.4723 204.531 14.475C204.531 14.9657 204.718 15.355 205.091 15.643C205.464 15.9203 205.987 16.059 206.659 16.059ZM219.443 9.467H214.627V16.875H213.491V8.459H219.443V9.467ZM225.421 8.395C226.21 8.395 226.925 8.57633 227.565 8.939C228.205 9.291 228.706 9.79233 229.069 10.443C229.431 11.0937 229.613 11.835 229.613 12.667C229.613 13.5097 229.431 14.2563 229.069 14.907C228.706 15.5577 228.205 16.0643 227.565 16.427C226.935 16.779 226.221 16.955 225.421 16.955C224.738 16.955 224.119 16.8163 223.565 16.539C223.021 16.251 222.573 15.835 222.221 15.291V19.979H221.085V8.459H222.173V10.123C222.514 9.56833 222.962 9.14167 223.517 8.843C224.082 8.54433 224.717 8.395 225.421 8.395ZM225.341 15.947C225.927 15.947 226.461 15.8137 226.941 15.547C227.421 15.2697 227.794 14.8803 228.061 14.379C228.338 13.8777 228.477 13.307 228.477 12.667C228.477 12.027 228.338 11.4617 228.061 10.971C227.794 10.4697 227.421 10.0803 226.941 9.803C226.461 9.52567 225.927 9.387 225.341 9.387C224.743 9.387 224.205 9.52567 223.725 9.803C223.255 10.0803 222.882 10.4697 222.605 10.971C222.338 11.4617 222.205 12.027 222.205 12.667C222.205 13.307 222.338 13.8777 222.605 14.379C222.882 14.8803 223.255 15.2697 223.725 15.547C224.205 15.8137 224.743 15.947 225.341 15.947ZM238.971 8.459L234.763 17.883C234.422 18.6723 234.027 19.2323 233.579 19.563C233.131 19.8937 232.592 20.059 231.963 20.059C231.558 20.059 231.179 19.995 230.827 19.867C230.475 19.739 230.171 19.547 229.915 19.291L230.443 18.443C230.87 18.8697 231.382 19.083 231.979 19.083C232.363 19.083 232.688 18.9763 232.955 18.763C233.232 18.5497 233.488 18.187 233.723 17.675L234.091 16.859L230.331 8.459H231.515L234.683 15.611L237.851 8.459H238.971ZM244.618 12.491C245.216 12.6297 245.674 12.8697 245.994 13.211C246.325 13.5523 246.49 13.9683 246.49 14.459C246.49 14.9497 246.32 15.387 245.978 15.771C245.648 16.155 245.194 16.4537 244.618 16.667C244.042 16.8697 243.408 16.971 242.714 16.971C242.106 16.971 241.509 16.8857 240.922 16.715C240.336 16.5337 239.824 16.2723 239.386 15.931L239.77 15.083C240.154 15.371 240.602 15.595 241.114 15.755C241.626 15.915 242.144 15.995 242.666 15.995C243.445 15.995 244.08 15.851 244.57 15.563C245.072 15.2643 245.322 14.8643 245.322 14.363C245.322 13.915 245.12 13.5683 244.714 13.323C244.309 13.067 243.754 12.939 243.05 12.939H241.61V12.107H242.986C243.616 12.107 244.122 11.9897 244.506 11.755C244.89 11.5097 245.082 11.1843 245.082 10.779C245.082 10.331 244.864 9.979 244.426 9.723C244 9.467 243.44 9.339 242.746 9.339C241.84 9.339 240.944 9.56833 240.058 10.027L239.738 9.147C240.741 8.62433 241.781 8.363 242.858 8.363C243.498 8.363 244.074 8.459 244.586 8.651C245.109 8.83233 245.514 9.09367 245.802 9.435C246.101 9.77633 246.25 10.171 246.25 10.619C246.25 11.0457 246.101 11.4243 245.802 11.755C245.514 12.0857 245.12 12.331 244.618 12.491ZM249.069 8.459H250.205V15.147L255.821 8.459H256.829V16.875H255.693V10.187L250.093 16.875H249.069V8.459ZM266.005 9.467H262.821V16.875H261.685V9.467H258.501V8.459H266.005V9.467ZM271.263 11.435C272.319 11.4457 273.119 11.6803 273.663 12.139C274.218 12.5977 274.495 13.259 274.495 14.123C274.495 15.019 274.197 15.707 273.599 16.187C273.013 16.667 272.159 16.9017 271.039 16.891L267.647 16.875V8.459H268.783V11.403L271.263 11.435ZM270.975 16.027C271.754 16.0377 272.341 15.883 272.735 15.563C273.141 15.2323 273.343 14.7523 273.343 14.123C273.343 13.5043 273.146 13.0457 272.751 12.747C272.357 12.4483 271.765 12.2937 270.975 12.283L268.783 12.251V15.995L270.975 16.027Z" fill="white"/>
<line x1="286" y1="12.375" x2="469" y2="12.375" stroke="white"/>
</svg>
