<?xml version="1.0" encoding="utf-8"?>
<!-- Generator: Adobe Illustrator 19.2.1, SVG Export Plug-In . SVG Version: 6.00 Build 0)  -->
<svg version="1.1" id="Layer_1" xmlns="http://www.w3.org/2000/svg" xmlns:xlink="http://www.w3.org/1999/xlink" x="0px" y="0px"
	 viewBox="0 0 186 51" style="enable-background:new 0 0 186 51;" xml:space="preserve">
<style type="text/css">
	.st0{fill:url(#SVGID_1_);}
	.st1{fill:url(#SVGID_2_);}
	.st2{fill:url(#SVGID_3_);}
	.st3{fill:url(#SVGID_4_);}
	.st4{fill:#FFFFFF;}
</style>
<linearGradient id="SVGID_1_" gradientUnits="userSpaceOnUse" x1="42.3305" y1="24.8715" x2="38.2098" y2="32.9589" gradientTransform="matrix(1 0 0 -1 0 53.2)">
	<stop  offset="0" style="stop-color:#FCD08F"/>
	<stop  offset="1" style="stop-color:#F79774"/>
</linearGradient>
<path class="st0" d="M39,30c3.9-2.1,6.8-3.7,7.1-3.9c0.8-0.4,1.6-1.6,0-2.4c-0.5-0.3-3.4-1.9-7.1-3.9L34,24.9L39,30z"/>
<linearGradient id="SVGID_2_" gradientUnits="userSpaceOnUse" x1="36.3364" y1="26.1108" x2="20.6465" y2="9.2854" gradientTransform="matrix(1 0 0 -1 0 53.2)">
	<stop  offset="0" style="stop-color:#E74148"/>
	<stop  offset="1" style="stop-color:#8051A1"/>
</linearGradient>
<path class="st1" d="M33.9,24.9L17.7,41.2c0.4,0,0.8-0.1,1.3-0.3c1-0.6,12.3-6.7,20-10.9L33.9,24.9z"/>
<linearGradient id="SVGID_3_" gradientUnits="userSpaceOnUse" x1="36.426" y1="30.6388" x2="20.4872" y2="47.144" gradientTransform="matrix(1 0 0 -1 0 53.2)">
	<stop  offset="0" style="stop-color:#E5ECAA"/>
	<stop  offset="1" style="stop-color:#4ABEBC"/>
</linearGradient>
<path class="st2" d="M33.9,24.9l5.1-5.1c0,0-18.8-10.3-20-10.9c-0.4-0.2-0.9-0.3-1.3-0.2L33.9,24.9z"/>
<linearGradient id="SVGID_4_" gradientUnits="userSpaceOnUse" x1="25.25" y1="11.9555" x2="25.25" y2="44.5213" gradientTransform="matrix(1 0 0 -1 0 53.2)">
	<stop  offset="0" style="stop-color:#92D4CF"/>
	<stop  offset="1" style="stop-color:#1A7492"/>
</linearGradient>
<path class="st3" d="M33.9,24.9L17.7,8.7c-0.7,0.1-1.2,0.7-1.2,1.9c0,1.9,0,27.1,0,28.7c0,1.1,0.4,1.9,1.2,1.9L33.9,24.9z"/>
<g>
	<path class="st4" d="M68,17.5c-0.5,0.2-1.6,0.5-2.9,0.5c-1.4,0-2.6-0.4-3.5-1.3c-0.8-0.8-1.3-2.1-1.3-3.5c0-2.8,2-4.9,5.1-4.9
		c1.1,0,2,0.2,2.4,0.4l-0.3,1c-0.5-0.2-1.1-0.4-2.1-0.4c-2.3,0-3.8,1.4-3.8,3.8s1.5,3.8,3.7,3.8c0.8,0,1.4-0.1,1.6-0.3v-2.8H65v-1
		h3.1L68,17.5L68,17.5z"/>
	<path class="st4" d="M71,14.8c0,1.7,1.1,2.4,2.3,2.4c0.9,0,1.4-0.2,1.9-0.4l0.2,0.9c-0.4,0.2-1.2,0.4-2.3,0.4
		c-2.1,0-3.4-1.4-3.4-3.4c0-2.1,1.2-3.7,3.2-3.7c2.2,0,2.8,2,2.8,3.2c0,0.3,0,0.5,0,0.6H71z M74.7,13.9c0-0.8-0.3-2-1.7-2
		c-1.3,0-1.8,1.2-1.9,2H74.7z"/>
	<path class="st4" d="M78.7,9.2v2h1.8v0.9h-1.8v3.7c0,0.8,0.2,1.3,0.9,1.3c0.3,0,0.6,0,0.7-0.1l0.1,0.9c-0.2,0.1-0.6,0.2-1.1,0.2
		c-0.6,0-1-0.2-1.3-0.5c-0.4-0.4-0.5-1-0.5-1.8v-3.7h-1.1v-0.9h1.1V9.6L78.7,9.2z"/>
	<path class="st4" d="M85.7,9.2c0,0.4-0.3,0.8-0.8,0.8c-0.4,0-0.7-0.3-0.7-0.8c0-0.4,0.3-0.8,0.8-0.8C85.3,8.4,85.7,8.8,85.7,9.2z
		 M84.3,17.9v-6.8h1.2v6.8H84.3z"/>
	<path class="st4" d="M89.8,9.2v2h1.8v0.9h-1.8v3.7c0,0.8,0.2,1.3,0.9,1.3c0.3,0,0.6,0,0.7-0.1l0.1,0.9c-0.2,0.1-0.6,0.2-1.1,0.2
		c-0.6,0-1-0.2-1.3-0.5c-0.4-0.4-0.5-1-0.5-1.8v-3.7h-1.1v-0.9h1.1V9.6L89.8,9.2z"/>
	<path class="st4" d="M102.3,14.5c0,2.5-1.7,3.6-3.4,3.6c-1.8,0-3.3-1.4-3.3-3.5c0-2.3,1.5-3.6,3.4-3.6S102.3,12.4,102.3,14.5z
		 M96.8,14.6c0,1.5,0.9,2.6,2.1,2.6s2.1-1.1,2.1-2.6c0-1.2-0.6-2.6-2-2.6S96.8,13.3,96.8,14.6z"/>
	<path class="st4" d="M103.8,13c0-0.7,0-1.3-0.1-1.8h1.1l0.1,1.1l0,0c0.3-0.6,1.1-1.3,2.3-1.3c0.9,0,2.4,0.6,2.4,2.9V18h-1.2v-3.9
		c0-1.1-0.4-2-1.6-2c-0.8,0-1.5,0.6-1.7,1.3c-0.1,0.2-0.1,0.4-0.1,0.6v4.1h-1.2V13z"/>
</g>
<g>
	<path class="st4" d="M148.4,40.6H147V24.9h1.4V40.6z"/>
	<path class="st4" d="M159.9,39.2v-7.1c0,0-0.4-2.9-4.8-2.9c-4.4,0-4.5,3.2-4.5,3.2h1.4c0,0-0.1-2.2,3.1-2.2c3.1,0,3.3,1.9,3.3,1.9
		v1.4h-2.9c-3.7,0-5.4,2-5.4,4c0,1.9,1.1,3.3,3.8,3.3c2.7,0,4.5-1.6,4.5-1.6c0,0.8,0,1.4,0,1.4h1.4
		C159.9,40.6,159.9,40.1,159.9,39.2z M158.5,36.3c0,2.2-3,3.4-4.4,3.4s-2.5-0.6-2.5-2.1s1.8-2.7,4-2.7h2.9V36.3z"/>
	<path class="st4" d="M161.3,29.2h1.4l3.7,9.7l3.5-9.7h1.4c0,0-3.8,13.1-4.3,14.3c-0.5,1.2-2.5,1.7-4,1.7c-0.7,0-1.3-0.4-1.3-0.4
		l0.4-1c0,0,0.3,0.2,1,0.2c0.6,0,1.8-1.5,1.8-1.5l0.8-1.9L161.3,29.2z"/>
	<path class="st4" d="M140.3,29.1c-2.4,0-3.3,1.4-3.4,1.5v-1.4l0,0h-1.4v15.7h1.4l0,0v-5.7c0,0.1,0.6,1.6,3.4,1.6s5-1.8,5-5.9
		C145.3,30.7,142.6,29.1,140.3,29.1z M140,39.7c-2.3,0-3.1-3.4-3.2-3.4v-2.9c0-0.1,1.1-3.3,3.3-3.3c2.1,0,3.8,2.1,3.8,4.8
		C144,37.6,142.4,39.7,140,39.7z"/>
	<path class="st4" d="M74.8,26.2c0,0-1.9-1.9-6.5-1.9c-5.7,0-9,4.3-9,8.4c0,3.6,2.5,8.1,8.7,8.1c3.2,0,6.8-1.2,6.8-1.2s0-1.4,0-2.8
		s1.7-2,1.7-2h-5.7L69,35.9c0.9-0.2,3.4-0.2,3.4-0.2v3.4c0,0-1.1,0.6-2.8,0.6c-4.8,0-8-4.2-8-8c0-4.7,3.4-6.7,6.3-6.7
		s4.6,2.2,4.6,2.2L72,28.1l0.9-0.2L74.8,26.2z"/>
	<path class="st4" d="M82.8,29.2c-3.3,0-6.1,2.4-6.1,5.9c0,2.5,2,5.5,5.7,5.5c3.6,0,6.2-2.4,6.2-5.8C88.5,31.5,86.2,29.2,82.8,29.2z
		 M83,39.9c-2.8,0-4.1-4.2-4.1-6.3S80.4,30,82,30c2.4,0,4.1,2.8,4.1,6.1C86.2,37.1,85.8,39.9,83,39.9z"/>
	<path class="st4" d="M95.8,29.2c-3.3,0-6,2.4-6,5.9c0,2.5,2,5.5,5.7,5.5c3.6,0,6.2-2.4,6.2-5.8C101.5,31.5,99,29.2,95.8,29.2z
		 M95.9,39.9c-2.7,0-4-4.2-4-6.3S93.4,30,95,30c2.4,0,4,2.8,4,6.1C99.2,37.1,98.8,39.9,95.9,39.9z"/>
	<path class="st4" d="M111.2,39.8c-1.2-0.8-1.4-1.2-1.4-1.6c0-0.4,0-0.6,0.9-1.4c0.8-0.8,1.6-1.6,1.6-3.1c0-2.2-1.5-3.2-1.5-3.2h1.4
		l1.4-0.8c0,0-2.7,0-5.6,0s-5.1,2.2-5.1,4.6c0,1.7,1.4,3.7,4.3,3.7c0.3,0,0.5-0.1,0.5-0.1s-0.2,0.4-0.2,0.9c0,0.8,0.7,1.5,0.7,1.5
		s-6.5,0-6.5,4.2c0,2.5,2.9,3.4,5.2,3.4c2.3,0,6.4-1.2,6.4-4.4C113.2,41.8,112.3,40.6,111.2,39.8z M108,37.1c-1.7,0-3.1-2.5-3.1-4.1
		c0-1.5,0.8-2.6,2.1-2.6c1.4,0,3,1.5,3,4.4C110,35.8,109.8,37.1,108,37.1z M107.8,46.7c-0.8,0-4.2-0.3-4.2-2.9
		c0-2.6,3.9-2.9,4.3-2.9c0.5,0,0.8,0.1,0.8,0.1c1.2,1,2.5,1.6,2.5,3.2C111.4,46.5,108.7,46.7,107.8,46.7z"/>
	<path class="st4" d="M113.9,24.9l1-1.4h3.3c-0.8,0.4-1.4,0.8-1.4,2.9c0,2,0,11.4,0,11.4c0,0.8,1,1.9,1.6,1.9s0.8,0.1,0.8,0.1
		l-1,0.8h-4.3c0,0,1.4-0.9,1.4-1.4V24.9H113.9z"/>
	<path class="st4" d="M129,32.1c0,0-0.6-3-4.2-3c-3.6,0-5.5,2.8-5.5,5.6c0,2.8,1.7,5.9,5.8,5.9c2.9,0,4.2-2.1,4.2-2.1
		s-1.4,0.8-2.9,0.8c-2.3,0-5-2.4-5-5.9c0-2.4,1.7-3.3,2.7-3.3c2.1,0,2.5,1.9,2.3,2.2c-0.2,0.3-5,2.3-5,2.3l1.9-0.1L129,32.1z"/>
</g>
</svg>
