<svg width="53" height="53" viewBox="0 0 53 53" fill="none" xmlns="http://www.w3.org/2000/svg">
<rect x="26.5" y="1.41421" width="35.4767" height="35.4767" rx="4" transform="rotate(45 26.5 1.41421)" stroke="white" stroke-width="2"/>
<path fill-rule="evenodd" clip-rule="evenodd" d="M35.0362 28.2416C35.8214 29.0082 36.6501 29.7294 37.3543 30.5732C37.6653 30.9482 37.9599 31.3352 38.1851 31.7704C38.5044 32.3891 38.2152 33.0698 37.6605 33.1068L34.2123 33.1052C33.3229 33.179 32.6135 32.821 32.0169 32.2129C31.5395 31.7266 31.0974 31.2091 30.6383 30.7064C30.4501 30.5009 30.2531 30.3076 30.0178 30.1548C29.5471 29.8492 29.1385 29.9428 28.8695 30.4337C28.5955 30.9331 28.5334 31.486 28.5064 32.0425C28.4695 32.8545 28.2241 33.068 27.4084 33.1051C25.6653 33.1873 24.0111 32.9236 22.4743 32.0443C21.1194 31.2691 20.0688 30.1748 19.1543 28.9358C17.3738 26.5234 16.0103 23.8725 14.7848 21.1474C14.509 20.5334 14.7107 20.2038 15.3881 20.1922C16.5131 20.1703 17.6378 20.1719 18.7641 20.1906C19.2213 20.1973 19.5239 20.4595 19.7005 20.8914C20.3091 22.3879 21.0538 23.8117 21.9886 25.1314C22.2375 25.4828 22.4913 25.8341 22.8528 26.0814C23.2527 26.3553 23.5571 26.2645 23.7453 25.8191C23.8646 25.5366 23.9169 25.2324 23.9438 24.9299C24.0329 23.8891 24.0447 22.8501 23.8883 21.813C23.7924 21.1657 23.4278 20.7467 22.7819 20.6242C22.4524 20.5618 22.5014 20.4391 22.661 20.251C22.9382 19.9266 23.1989 19.7246 23.7185 19.7246H27.6155C28.229 19.8457 28.3653 20.1213 28.4493 20.7386L28.4526 25.0674C28.4459 25.3064 28.572 26.0156 29.0025 26.1738C29.347 26.2864 29.574 26.0108 29.7808 25.7923C30.7138 24.802 31.3797 23.6317 31.9747 22.4198C32.2387 21.8869 32.4657 21.3336 32.6857 20.7806C32.8487 20.3703 33.1045 20.1684 33.5667 20.1774L37.3173 20.1807C37.4285 20.1807 37.5411 20.1824 37.6488 20.2008C38.2808 20.3085 38.454 20.5804 38.2588 21.1975C37.9512 22.1658 37.3528 22.9727 36.7677 23.7834C36.1422 24.6489 35.4732 25.4847 34.8529 26.3553C34.2831 27.1504 34.3283 27.5511 35.0362 28.2416Z" fill="white"/>
</svg>
