<svg width="53" height="53" viewBox="0 0 53 53" fill="none" xmlns="http://www.w3.org/2000/svg">
<rect x="26.5" y="1.41421" width="35.4767" height="35.4767" rx="4" transform="rotate(45 26.5 1.41421)" stroke="white" stroke-width="2"/>
<path d="M19.8837 27.4817C19.3175 28.5947 19.9603 29.1267 21.427 30.0355C22.6739 30.8058 24.3964 31.0875 25.5029 31.2002C25.0494 31.6361 27.1275 29.6374 21.1425 35.3942C19.8735 36.6106 21.9165 38.5622 23.1846 37.3717L26.6177 34.0606C27.932 35.325 29.1918 36.5367 30.0507 37.3763C31.3198 38.5715 33.3618 36.6365 32.1067 35.3989C32.0125 35.3093 27.4545 30.9369 27.7325 31.2048C28.8528 31.0921 30.5495 30.7938 31.7816 30.0401L31.7806 30.0392C33.2473 29.1257 33.8902 28.5947 33.3323 27.4817C32.9952 26.85 32.0863 26.3217 30.8764 27.2351C30.8764 27.2351 29.2426 28.4866 26.6075 28.4866C23.9715 28.4866 22.3386 27.2351 22.3386 27.2351C21.1296 26.317 20.2171 26.85 19.8837 27.4817Z" fill="white"/>
<path d="M26.6057 26.7991C29.818 26.7991 32.441 24.2888 32.441 21.1984C32.441 18.0951 29.818 15.5847 26.6057 15.5847C23.3925 15.5847 20.7694 18.0951 20.7694 21.1984C20.7694 24.2888 23.3925 26.7991 26.6057 26.7991ZM26.6057 18.4285C28.1841 18.4285 29.4716 19.6671 29.4716 21.1984C29.4716 22.7168 28.1841 23.9554 26.6057 23.9554C25.0272 23.9554 23.7397 22.7168 23.7397 21.1984C23.7388 19.6661 25.0263 18.4285 26.6057 18.4285Z" fill="white"/>
</svg>
