<svg width="53" height="53" viewBox="0 0 53 53" fill="none" xmlns="http://www.w3.org/2000/svg">
<rect x="26.5" y="1.41421" width="35.4767" height="35.4767" rx="4" transform="rotate(45 26.5 1.41421)" stroke="white" stroke-width="2"/>
<path d="M26.6282 30.2354C28.882 30.2354 30.7091 28.4083 30.7091 26.1544C30.7091 23.9006 28.882 22.0735 26.6282 22.0735C24.3743 22.0735 22.5472 23.9006 22.5472 26.1544C22.5472 28.4083 24.3743 30.2354 26.6282 30.2354Z" fill="white"/>
<path d="M31.5346 16.4882C29.0893 16.4212 24.1952 16.4212 21.7499 16.4882C20.4775 16.5231 19.0349 16.8394 18.1283 17.8063C17.1862 18.8114 16.8302 20.0257 16.7941 21.3842C16.7306 23.7685 16.7941 30.9248 16.7941 30.9248C16.8354 32.2832 17.1862 33.4976 18.1283 34.5027C19.0349 35.47 20.4775 35.7859 21.7499 35.8208C24.1952 35.8878 29.0893 35.8878 31.5346 35.8208C32.807 35.7859 34.2496 35.4696 35.1562 34.5027C36.0983 33.4976 36.4543 32.2833 36.4904 30.9248V21.3842C36.4543 20.0257 36.0983 18.8114 35.1562 17.8063C34.2493 16.8391 32.8067 16.5231 31.5346 16.4882ZM26.6419 32.5051C25.384 32.5051 24.1544 32.1326 23.1085 31.4348C22.0626 30.737 21.2474 29.7452 20.766 28.5848C20.2847 27.4244 20.1587 26.1475 20.4041 24.9156C20.6495 23.6837 21.2553 22.5521 22.1447 21.664C23.0342 20.7758 24.1674 20.171 25.4012 19.926C26.6349 19.6809 27.9137 19.8067 29.0758 20.2873C30.238 20.768 31.2313 21.582 31.9301 22.6263C32.629 23.6707 33.002 24.8985 33.002 26.1545C33.002 27.8388 32.3319 29.4541 31.1392 30.6451C29.9464 31.836 28.3287 32.5051 26.6419 32.5051ZM33.029 21.1148C32.7774 21.1147 32.5315 21.0402 32.3224 20.9006C32.1133 20.761 31.9503 20.5626 31.8541 20.3305C31.7578 20.0984 31.7327 19.8431 31.7818 19.5967C31.8309 19.3503 31.9521 19.1241 32.13 18.9465C32.3079 18.7689 32.5345 18.6479 32.7813 18.5989C33.028 18.55 33.2838 18.5751 33.5162 18.6713C33.7486 18.7674 33.9472 18.9302 34.087 19.1391C34.2267 19.3479 34.3013 19.5935 34.3013 19.8447C34.3013 20.0115 34.2684 20.1767 34.2045 20.3308C34.1405 20.4849 34.0468 20.6249 33.9287 20.7429C33.8105 20.8608 33.6702 20.9544 33.5159 21.0182C33.3615 21.082 33.1961 21.1148 33.029 21.1148Z" fill="white"/>
</svg>
