<svg width="53" height="53" viewBox="0 0 53 53" fill="none" xmlns="http://www.w3.org/2000/svg">
<rect x="26.5" y="1.41421" width="35.4767" height="35.4767" rx="4" transform="rotate(45 26.5 1.41421)" stroke="white" stroke-width="2"/>
<path d="M36.4904 20.6168C35.7161 20.9499 34.9416 21.1579 34.1676 21.2414C35.0418 20.7169 35.6331 19.9759 35.9412 19.0185C35.1415 19.493 34.2883 19.8176 33.3808 19.9925C32.5815 19.1433 31.5992 18.7185 30.4333 18.7185C29.3178 18.7185 28.3667 19.1118 27.5796 19.8987C26.7929 20.6855 26.3996 21.6366 26.3996 22.7522C26.3996 23.0519 26.4328 23.36 26.4995 23.6764C24.8509 23.5931 23.3044 23.179 21.8598 22.4338C20.4153 21.6886 19.1893 20.6957 18.1819 19.4552C17.8156 20.0795 17.6323 20.7582 17.6323 21.4908C17.6323 22.1818 17.7947 22.823 18.1195 23.4142C18.4442 24.0052 18.8814 24.4839 19.4309 24.8503C18.7814 24.8252 18.1736 24.6545 17.6076 24.3381V24.3881C17.6076 25.3623 17.9136 26.2176 18.5254 26.9546C19.1374 27.6916 19.9096 28.1555 20.8421 28.3471C20.4923 28.4385 20.1384 28.4843 19.7805 28.4843C19.5473 28.4843 19.2934 28.4635 19.0187 28.4222C19.2767 29.2296 19.7513 29.8934 20.4423 30.414C21.1334 30.9344 21.916 31.2026 22.7902 31.2197C21.325 32.3684 19.6557 32.9428 17.7824 32.9428C17.4243 32.9428 17.0997 32.9265 16.8082 32.893C18.6816 34.1001 20.7463 34.7036 23.0027 34.7036C24.4347 34.7036 25.7793 34.477 27.0361 34.0231C28.2936 33.5696 29.3675 32.9616 30.2584 32.1997C31.1491 31.4379 31.9173 30.5616 32.5625 29.5709C33.2077 28.5801 33.6883 27.5457 34.005 26.4676C34.3212 25.3892 34.4795 24.3092 34.4795 23.2266C34.4795 22.9935 34.4753 22.8187 34.4669 22.7021C35.2581 22.1279 35.9325 21.4326 36.4904 20.6168Z" fill="white"/>
</svg>
