<svg width="225" height="64" viewBox="0 0 225 64" fill="none" xmlns="http://www.w3.org/2000/svg">
<g clip-path="url(#clip0_171_160)">
<path d="M218.01 0.704834C218.793 0.704869 219.569 0.857088 220.293 1.15308C221.017 1.44922 221.674 1.88385 222.228 2.43042C222.781 2.97697 223.22 3.62539 223.519 4.33862C223.818 5.05182 223.972 5.81615 223.972 6.58765L223.973 57.4207C223.973 58.1916 223.819 58.9552 223.52 59.6677C223.22 60.3804 222.782 61.0291 222.229 61.575C221.675 62.1206 221.018 62.5541 220.295 62.8494C219.571 63.1447 218.795 63.2955 218.012 63.2947H6.54883C4.96549 63.2963 3.44714 62.6774 2.32812 61.575C1.27937 60.5417 0.661813 59.1634 0.586914 57.7117L0.579102 57.4197V6.58862C0.581157 5.02991 1.20948 3.53398 2.32812 2.43042C3.37705 1.39568 4.77678 0.784356 6.25293 0.71167L6.5498 0.704834H218.01Z" stroke="white"/>
<path d="M49.356 31.6505C49.3071 26.2864 53.8037 23.6767 54.0093 23.5552C51.4627 19.8887 47.5155 19.3878 46.1285 19.3478C42.8133 19.0033 39.5977 21.3067 37.9089 21.3067C36.1865 21.3067 33.5859 19.3811 30.7832 19.4377C27.1765 19.4926 23.8023 21.5547 21.9518 24.7569C18.1328 31.286 20.981 40.8808 24.64 46.1583C26.4703 48.7447 28.609 51.629 31.4084 51.5274C34.1472 51.4176 35.1702 49.8049 38.4752 49.8049C41.7499 49.8049 42.7105 51.5274 45.5656 51.4625C48.5048 51.4176 50.3554 48.8662 52.1216 46.2582C54.2368 43.2974 55.0862 40.3782 55.1199 40.2284C55.0525 40.2051 49.4133 38.0781 49.356 31.6505ZM43.9628 15.876C45.4358 14.0569 46.4436 11.5821 46.1639 9.07065C44.0319 9.16385 41.3656 10.5269 39.8302 12.3061C38.4718 13.8739 37.2584 16.4436 37.5718 18.8602C39.9667 19.0366 42.4257 17.6669 43.9628 15.876Z" fill="white"/>
<path d="M89.0245 51.1563H85.197L83.1004 44.6505H75.8129L73.8157 51.1563H70.0894L77.3112 29.0075H81.7707L89.0245 51.1563ZM82.4684 41.921L80.5724 36.1375C80.3718 35.5466 79.9943 34.1553 79.4415 31.965H79.3741C79.1516 32.907 78.796 34.2984 78.3089 36.1375L76.4449 41.921H82.4684ZM107.56 42.9745C107.56 45.6907 106.814 47.8376 105.319 49.4137C103.981 50.8168 102.317 51.5174 100.333 51.5174C98.1912 51.5174 96.6508 50.7635 95.7154 49.2523V57.6322H92.1222V40.4347C92.1222 38.7288 92.0767 36.9796 91.9891 35.1855H95.1492L95.3497 37.7169H95.4171C96.6154 35.8096 98.4339 34.8559 100.874 34.8559C102.782 34.8559 104.375 35.5999 105.649 37.0895C106.921 38.5824 107.56 40.5429 107.56 42.9745ZM103.9 43.1043C103.9 41.5498 103.546 40.2683 102.834 39.2581C102.057 38.2079 101.014 37.682 99.7064 37.682C98.8199 37.682 98.0143 37.9749 97.2946 38.5524C96.5733 39.1349 96.1014 39.8955 95.8806 40.8375C95.782 41.1898 95.726 41.5524 95.7137 41.9176V44.5822C95.7137 45.7423 96.0744 46.7225 96.7958 47.5247C97.5171 48.3236 98.4542 48.7247 99.607 48.7247C100.96 48.7247 102.014 48.2071 102.767 47.1802C103.522 46.15 103.9 44.7919 103.9 43.1043ZM126.162 42.9745C126.162 45.6907 125.415 47.8376 123.92 49.4137C122.58 50.8168 120.918 51.5174 118.933 51.5174C116.791 51.5174 115.251 50.7635 114.315 49.2523V57.6322H110.722V40.4347C110.722 38.7288 110.676 36.9796 110.589 35.1855H113.749L113.949 37.7169H114.017C115.214 35.8096 117.032 34.8559 119.474 34.8559C121.38 34.8559 122.973 35.5999 124.25 37.0895C125.521 38.5824 126.162 40.5429 126.162 42.9745ZM122.499 43.1043C122.499 41.5498 122.144 40.2683 121.433 39.2581C120.656 38.2079 119.616 37.682 118.308 37.682C117.421 37.682 116.616 37.9749 115.893 38.5524C115.171 39.1349 114.701 39.8955 114.48 40.8375C114.371 41.2769 114.312 41.6347 114.312 41.9176V44.5822C114.312 45.7423 114.674 46.7225 115.392 47.5247C116.113 48.322 117.051 48.7247 118.207 48.7247C119.562 48.7247 120.615 48.2071 121.367 47.1802C122.122 46.15 122.499 44.7919 122.499 43.1043ZM146.959 44.9434C146.959 46.8291 146.292 48.3619 144.965 49.5452C143.506 50.8367 141.468 51.4842 138.856 51.4842C136.442 51.4842 134.508 51.0248 133.048 50.1044L133.879 47.1469C135.455 48.069 137.186 48.5283 139.07 48.5283C140.425 48.5283 141.478 48.2254 142.23 47.6246C142.983 47.0221 143.364 46.2166 143.364 45.2113C143.364 44.3109 143.049 43.557 142.431 42.9429C141.809 42.3304 140.781 41.7595 139.336 41.2353C135.409 39.789 133.444 37.6736 133.444 34.8909C133.444 33.0735 134.139 31.5856 135.524 30.4222C136.909 29.2605 138.746 28.6797 141.032 28.6797C143.073 28.6797 144.773 29.0308 146.123 29.7315L145.222 32.6241C143.951 31.945 142.517 31.6055 140.912 31.6055C139.645 31.6055 138.65 31.9134 137.939 32.5259C137.341 33.0735 137.037 33.7409 137.037 34.5331C137.037 35.4068 137.383 36.1325 138.071 36.7017C138.667 37.2259 139.756 37.7968 141.33 38.4093C143.261 39.1782 144.681 40.0736 145.589 41.1021C146.504 42.1307 146.959 43.4139 146.959 44.9434ZM158.87 37.8484H154.909V45.6025C154.909 47.5747 155.607 48.5583 157.006 48.5583C157.648 48.5583 158.18 48.505 158.602 48.3935L158.701 51.088C157.993 51.3493 157.061 51.4808 155.907 51.4808C154.488 51.4808 153.379 51.0531 152.578 50.1976C151.781 49.3422 151.38 47.9092 151.38 45.892V37.8417H149.02V35.1788H151.38V32.2546L154.909 31.2028V35.1788H158.87V37.8484ZM176.704 43.0394C176.704 45.4943 175.993 47.5098 174.574 49.0859C173.089 50.7086 171.114 51.5174 168.652 51.5174C166.275 51.5174 164.386 50.7402 162.977 49.1874C161.568 47.6313 160.863 45.6707 160.863 43.3057C160.863 40.8309 161.592 38.8037 163.043 37.2276C164.497 35.6498 166.456 34.8609 168.918 34.8609C171.291 34.8609 173.197 35.6398 174.64 37.1943C176.018 38.7022 176.704 40.6494 176.704 43.0394ZM172.98 43.121C172.98 41.658 172.659 40.4031 172.017 39.3529C171.264 38.0847 170.185 37.4506 168.788 37.4506C167.349 37.4506 166.245 38.0847 165.493 39.3529C164.849 40.4031 164.529 41.6797 164.529 43.1875C164.529 44.6521 164.849 45.9104 165.493 46.9572C166.27 48.2254 167.354 48.8595 168.758 48.8595C170.131 48.8595 171.208 48.2121 171.987 46.9256C172.648 45.8504 172.98 44.5872 172.98 43.121ZM188.389 38.3061C188.015 38.2395 187.636 38.2066 187.256 38.2079C185.992 38.2079 185.015 38.6772 184.327 39.6226C183.731 40.4547 183.431 41.5066 183.431 42.7764V51.1563H179.837V40.2151C179.841 38.5385 179.806 36.8621 179.733 35.1871H182.863L182.994 38.2428H183.094C183.474 37.1926 184.071 36.3455 184.89 35.7114C185.64 35.1573 186.551 34.8573 187.487 34.8559C187.819 34.8559 188.119 34.8792 188.386 34.9209L188.389 38.3061ZM204.459 42.4153C204.468 42.9547 204.424 43.4937 204.328 44.0247H193.548C193.588 45.6025 194.111 46.8107 195.112 47.6429C196.02 48.3852 197.195 48.758 198.638 48.758C200.234 48.758 201.69 48.5084 202.999 48.0041L203.562 50.4656C202.032 51.1247 200.225 51.4525 198.141 51.4525C195.633 51.4525 193.664 50.7236 192.232 49.2689C190.802 47.8127 190.086 45.8554 190.086 43.4039C190.086 40.9973 190.752 38.9918 192.085 37.3924C193.48 35.6848 195.366 34.831 197.739 34.831C200.07 34.831 201.835 35.6848 203.033 37.3924C203.982 38.7455 204.459 40.4231 204.459 42.4153ZM201.033 41.4949C201.058 40.4414 200.822 39.5343 200.335 38.7671C199.713 37.7785 198.756 37.2859 197.473 37.2859C196.298 37.2859 195.341 37.7668 194.613 38.7321C194.015 39.4994 193.659 40.4214 193.55 41.4916L201.033 41.4949Z" fill="white"/>
<path d="M74.7765 21.1769C73.7771 21.1769 72.9125 21.1287 72.1929 21.0471V10.3389C73.1994 10.1853 74.2165 10.1097 75.235 10.1125C79.3557 10.1125 81.2534 12.1147 81.2534 15.3784C81.2534 19.1431 79.0119 21.1769 74.7765 21.1769ZM75.3799 11.4856C74.8237 11.4856 74.3501 11.5189 73.9575 11.5988V19.739C74.1698 19.7722 74.5777 19.7872 75.1507 19.7872C77.8507 19.7872 79.3877 18.2694 79.3877 15.4267C79.3877 12.8919 77.9973 11.4856 75.3799 11.4856ZM87.1674 21.2585C84.845 21.2585 83.3399 19.5459 83.3399 17.2208C83.3399 14.7976 84.877 13.07 87.2989 13.07C89.5876 13.07 91.1263 14.7011 91.1263 17.0927C91.1263 19.5459 89.5404 21.2585 87.1674 21.2585ZM87.2348 14.3449C85.959 14.3449 85.1416 15.5232 85.1416 17.1709C85.1416 18.787 85.9758 19.9653 87.218 19.9653C88.4601 19.9653 89.2943 18.7054 89.2943 17.1376C89.2943 15.5399 88.4769 14.3449 87.2348 14.3449ZM104.37 13.2315L101.884 21.0804H100.264L99.2347 17.6719C98.9786 16.8381 98.7654 15.9921 98.5959 15.1371H98.5622C98.4324 15.9926 98.1864 16.8497 97.9251 17.6719L96.8296 21.0804H95.1931L92.8538 13.2315H94.669L95.569 16.9629C95.7813 17.8516 95.96 18.6904 96.1083 19.4827H96.142C96.2718 18.8219 96.4841 17.9964 96.7959 16.9795L97.9251 13.2331H99.3644L100.445 16.8996C100.706 17.7884 100.918 18.6605 101.084 19.4843H101.131C101.245 18.6771 101.426 17.82 101.67 16.8996L102.636 13.2331L104.37 13.2315ZM113.522 21.0804H111.755V16.5734C111.755 15.1854 111.216 14.4897 110.152 14.4897C109.106 14.4897 108.386 15.3784 108.386 16.412V21.0804H106.62V15.475C106.62 14.7809 106.603 14.037 106.554 13.2298H108.108L108.191 14.4414H108.24C108.715 13.6026 109.679 13.07 110.759 13.07C112.428 13.07 113.523 14.3299 113.523 16.3804L113.522 21.0804ZM118.392 21.0804H116.624V9.62988H118.392V21.0804ZM124.832 21.2585C122.511 21.2585 121.005 19.5459 121.005 17.2208C121.005 14.7976 122.542 13.07 124.962 13.07C127.252 13.07 128.789 14.7011 128.789 17.0927C128.791 19.5459 127.203 21.2585 124.832 21.2585ZM124.898 14.3449C123.622 14.3449 122.805 15.5232 122.805 17.1709C122.805 18.787 123.641 19.9653 124.879 19.9653C126.123 19.9653 126.956 18.7054 126.956 17.1376C126.957 15.5399 126.142 14.3449 124.898 14.3449ZM135.753 21.0804L135.625 20.1767H135.578C135.039 20.904 134.252 21.2585 133.254 21.2585C131.83 21.2585 130.819 20.2732 130.819 18.9484C130.819 17.0111 132.519 16.0092 135.463 16.0092V15.8644C135.463 14.8309 134.909 14.3133 133.813 14.3133C133.03 14.3133 132.342 14.508 131.737 14.8958L131.378 13.7491C132.113 13.2964 133.03 13.07 134.107 13.07C136.183 13.07 137.231 14.1518 137.231 16.3171V19.208C137.231 20.0003 137.267 20.6144 137.346 21.0821L135.753 21.0804ZM135.511 17.1709C133.549 17.1709 132.565 17.6403 132.565 18.7537C132.565 19.5775 133.072 19.9803 133.776 19.9803C134.675 19.9803 135.511 19.3029 135.511 18.3825V17.1709ZM145.808 21.0804L145.726 19.8205H145.677C145.169 20.7725 144.317 21.2585 143.125 21.2585C141.209 21.2585 139.79 19.5942 139.79 17.2525C139.79 14.7976 141.261 13.0684 143.27 13.0684C144.334 13.0684 145.087 13.4229 145.512 14.1352H145.547V9.62988H147.315V18.965C147.315 19.724 147.333 20.4346 147.381 21.0804H145.808ZM145.547 16.4619C145.547 15.3635 144.81 14.4265 143.686 14.4265C142.377 14.4265 141.576 15.5732 141.576 17.1876C141.576 18.7703 142.407 19.8538 143.651 19.8538C144.762 19.8538 145.547 18.9001 145.547 17.7701V16.4619ZM158.524 21.2585C156.204 21.2585 154.699 19.5459 154.699 17.2208C154.699 14.7976 156.236 13.07 158.656 13.07C160.946 13.07 162.483 14.7011 162.483 17.0927C162.485 19.5459 160.899 21.2585 158.524 21.2585ZM158.59 14.3449C157.316 14.3449 156.499 15.5232 156.499 17.1709C156.499 18.787 157.333 19.9653 158.573 19.9653C159.817 19.9653 160.65 18.7054 160.65 17.1376C160.653 15.5399 159.836 14.3449 158.59 14.3449ZM171.982 21.0804H170.214V16.5734C170.214 15.1854 169.675 14.4897 168.611 14.4897C167.565 14.4897 166.847 15.3784 166.847 16.412V21.0804H165.079V15.475C165.079 14.7809 165.062 14.037 165.013 13.2298H166.567L166.65 14.4414H166.698C167.172 13.6026 168.138 13.0684 169.216 13.0684C170.885 13.0684 171.982 14.3283 171.982 16.3787V21.0804ZM183.866 14.5396H181.922V18.3509C181.922 19.3212 182.263 19.8055 182.95 19.8055C183.262 19.8055 183.523 19.7722 183.734 19.724L183.783 21.0488C183.441 21.1786 182.982 21.2435 182.413 21.2435C181.021 21.2435 180.188 20.4846 180.188 18.4974V14.5396H179.029V13.2315H180.188V11.7935L181.922 11.2759V13.2298H183.866V14.5396ZM193.216 21.0804H191.451V16.6067C191.451 15.202 190.914 14.4914 189.849 14.4914C188.934 14.4914 188.081 15.1055 188.081 16.3487V21.0804H186.316V9.62988H188.081V14.3449H188.116C188.672 13.4894 189.478 13.0684 190.506 13.0684C192.188 13.0684 193.216 14.3599 193.216 16.412V21.0804ZM202.796 17.5753H197.495C197.529 19.0616 198.525 19.9004 200 19.9004C200.783 19.9004 201.505 19.7706 202.142 19.5293L202.416 20.7409C201.665 21.0638 200.78 21.2252 199.75 21.2252C197.264 21.2252 195.793 19.674 195.793 17.2691C195.793 14.8625 197.3 13.0534 199.551 13.0534C201.582 13.0534 202.856 14.5396 202.856 16.7848C202.868 17.0497 202.847 17.3151 202.796 17.5753ZM201.176 16.3321C201.176 15.1205 200.558 14.265 199.428 14.265C198.414 14.265 197.612 15.1371 197.497 16.3321H201.176Z" fill="white"/>
</g>
<defs>
<clipPath id="clip0_171_160">
<rect width="224.5" height="64" fill="white"/>
</clipPath>
</defs>
</svg>
