<svg width="478" height="56" viewBox="0 0 478 56" fill="none" xmlns="http://www.w3.org/2000/svg">
<path d="M20.332 54.831C16.38 54.831 12.58 54.1977 8.932 52.931C5.33467 51.6137 2.548 49.9417 0.572 47.915L2.776 43.583C4.65067 45.407 7.15867 46.9523 10.3 48.219C13.492 49.435 16.836 50.043 20.332 50.043C23.676 50.043 26.3867 49.6377 28.464 48.827C30.592 47.9657 32.1373 46.8257 33.1 45.407C34.1133 43.9883 34.62 42.4177 34.62 40.695C34.62 38.6177 34.012 36.9457 32.796 35.679C31.6307 34.4123 30.0853 33.4243 28.16 32.715C26.2347 31.955 24.1067 31.2963 21.776 30.739C19.4453 30.1817 17.1147 29.599 14.784 28.991C12.4533 28.3323 10.3 27.471 8.324 26.407C6.39867 25.343 4.828 23.9497 3.612 22.227C2.44667 20.4537 1.864 18.1483 1.864 15.311C1.864 12.6763 2.548 10.2697 3.916 8.091C5.33467 5.86166 7.488 4.08833 10.376 2.771C13.264 1.403 16.9627 0.718998 21.472 0.718998C24.4613 0.718998 27.4253 1.14966 30.364 2.011C33.3027 2.82166 35.836 3.96166 37.964 5.431L36.064 9.915C33.784 8.395 31.352 7.28033 28.768 6.571C26.2347 5.86167 23.7773 5.507 21.396 5.507C18.204 5.507 15.5693 5.93767 13.492 6.799C11.4147 7.66033 9.86933 8.82566 8.856 10.295C7.89333 11.7137 7.412 13.335 7.412 15.159C7.412 17.2363 7.99467 18.9083 9.16 20.175C10.376 21.4417 11.9467 22.4297 13.872 23.139C15.848 23.8483 18.0013 24.4817 20.332 25.039C22.6627 25.5963 24.968 26.2043 27.248 26.863C29.5787 27.5217 31.7067 28.383 33.632 29.447C35.608 30.4603 37.1787 31.8283 38.344 33.551C39.56 35.2737 40.168 37.5283 40.168 40.315C40.168 42.899 39.4587 45.3057 38.04 47.535C36.6213 49.7137 34.4427 51.487 31.504 52.855C28.616 54.1723 24.892 54.831 20.332 54.831ZM91.3338 1.175H96.8818V54.375H91.3338V1.175ZM58.0458 54.375H52.4218V1.175H58.0458V54.375ZM91.8658 29.827H57.4378V24.887H91.8658V29.827ZM137.502 54.831C133.499 54.831 129.775 54.1723 126.33 52.855C122.935 51.487 119.971 49.587 117.438 47.155C114.955 44.6723 113.005 41.8097 111.586 38.567C110.218 35.2737 109.534 31.6763 109.534 27.775C109.534 23.8737 110.218 20.3017 111.586 17.059C113.005 13.7657 114.955 10.903 117.438 8.471C119.971 5.98833 122.935 4.08833 126.33 2.771C129.725 1.403 133.449 0.718998 137.502 0.718998C141.505 0.718998 145.203 1.403 148.598 2.771C151.993 4.08833 154.931 5.963 157.414 8.395C159.947 10.827 161.898 13.6897 163.266 16.983C164.685 20.2763 165.394 23.8737 165.394 27.775C165.394 31.6763 164.685 35.2737 163.266 38.567C161.898 41.8603 159.947 44.723 157.414 47.155C154.931 49.587 151.993 51.487 148.598 52.855C145.203 54.1723 141.505 54.831 137.502 54.831ZM137.502 49.815C140.694 49.815 143.633 49.283 146.318 48.219C149.054 47.1043 151.41 45.559 153.386 43.583C155.413 41.5563 156.983 39.2257 158.098 36.591C159.213 33.9057 159.77 30.967 159.77 27.775C159.77 24.583 159.213 21.6697 158.098 19.035C156.983 16.3497 155.413 14.019 153.386 12.043C151.41 10.0163 149.054 8.471 146.318 7.407C143.633 6.29233 140.694 5.735 137.502 5.735C134.31 5.735 131.346 6.29233 128.61 7.407C125.874 8.471 123.493 10.0163 121.466 12.043C119.49 14.019 117.919 16.3497 116.754 19.035C115.639 21.6697 115.082 24.583 115.082 27.775C115.082 30.9163 115.639 33.8297 116.754 36.515C117.919 39.2003 119.49 41.5563 121.466 43.583C123.493 45.559 125.874 47.1043 128.61 48.219C131.346 49.283 134.31 49.815 137.502 49.815ZM178 54.375V1.175H197.912C202.421 1.175 206.297 1.90966 209.54 3.379C212.783 4.79767 215.265 6.875 216.988 9.611C218.761 12.2963 219.648 15.5643 219.648 19.415C219.648 23.1643 218.761 26.407 216.988 29.143C215.265 31.8283 212.783 33.9057 209.54 35.375C206.297 36.8443 202.421 37.579 197.912 37.579H181.116L183.624 34.919V54.375H178ZM183.624 35.375L181.116 32.639H197.76C203.08 32.639 207.108 31.499 209.844 29.219C212.631 26.8883 214.024 23.6203 214.024 19.415C214.024 15.159 212.631 11.8657 209.844 9.535C207.108 7.20433 203.08 6.039 197.76 6.039H181.116L183.624 3.379V35.375ZM255.883 55.287C251.677 55.287 247.801 54.6283 244.255 53.311C240.759 51.943 237.693 50.0177 235.059 47.535C232.475 45.0523 230.448 42.139 228.979 38.795C227.56 35.451 226.851 31.7777 226.851 27.775C226.851 23.7723 227.56 20.099 228.979 16.755C230.448 13.411 232.5 10.4977 235.135 8.015C237.769 5.53233 240.86 3.63233 244.407 2.315C247.953 0.946998 251.855 0.262999 256.111 0.262999C260.823 0.262999 265.053 1.04833 268.803 2.619C272.603 4.18966 275.795 6.46966 278.379 9.459L270.475 16.755C268.549 14.7283 266.447 13.2337 264.167 12.271C261.887 11.2577 259.404 10.751 256.719 10.751C254.135 10.751 251.779 11.1563 249.651 11.967C247.523 12.7777 245.673 13.943 244.103 15.463C242.583 16.983 241.392 18.7817 240.531 20.859C239.72 22.9363 239.315 25.2417 239.315 27.775C239.315 30.2577 239.72 32.5377 240.531 34.615C241.392 36.6923 242.583 38.5163 244.103 40.087C245.673 41.607 247.497 42.7723 249.575 43.583C251.703 44.3937 254.033 44.799 256.567 44.799C258.999 44.799 261.355 44.419 263.635 43.659C265.965 42.8483 268.22 41.5057 270.399 39.631L277.391 48.523C274.503 50.7017 271.133 52.3737 267.283 53.539C263.483 54.7043 259.683 55.287 255.883 55.287ZM266.143 46.927V26.939H277.391V48.523L266.143 46.927ZM312.464 55.287C304.914 55.287 299.012 53.1843 294.756 48.979C290.5 44.7737 288.372 38.7697 288.372 30.967V1.175H300.684V30.511C300.684 35.5777 301.722 39.2257 303.8 41.455C305.877 43.6843 308.79 44.799 312.54 44.799C316.289 44.799 319.202 43.6843 321.28 41.455C323.357 39.2257 324.396 35.5777 324.396 30.511V1.175H336.556V30.967C336.556 38.7697 334.428 44.7737 330.172 48.979C325.916 53.1843 320.013 55.287 312.464 55.287ZM348.722 54.375V1.175H361.034V54.375H348.722ZM373.66 54.375V1.175H397.828C403.604 1.175 408.696 2.28966 413.104 4.519C417.512 6.69766 420.957 9.763 423.44 13.715C425.922 17.667 427.164 22.3537 427.164 27.775C427.164 33.1457 425.922 37.8323 423.44 41.835C420.957 45.787 417.512 48.8777 413.104 51.107C408.696 53.2857 403.604 54.375 397.828 54.375H373.66ZM385.972 44.267H397.22C400.766 44.267 403.832 43.6083 406.416 42.291C409.05 40.923 411.077 38.9977 412.496 36.515C413.965 34.0323 414.7 31.119 414.7 27.775C414.7 24.3803 413.965 21.467 412.496 19.035C411.077 16.5523 409.05 14.6523 406.416 13.335C403.832 11.967 400.766 11.283 397.22 11.283H385.972V44.267ZM447.773 22.607H473.385V32.183H447.773V22.607ZM448.685 44.495H477.641V54.375H436.449V1.175H476.653V11.055H448.685V44.495Z" fill="white"/>
</svg>
