<svg xmlns="http://www.w3.org/2000/svg" viewBox="0 0 400.05 51.38"><defs><style>.a{fill:#fff;}</style></defs><title>shopguide</title><path class="a" d="M0,45.08a22.11,22.11,0,0,0,15.47,6.3c9.52,0,15.05-6,15.05-13.51C30.52,22.05,6,25.2,6,13.37c0-5.18,4.69-8.26,10.29-8.26a16.61,16.61,0,0,1,10.85,4.2l2.38-4.06a19.53,19.53,0,0,0-13-4.76C7.84,0.49,1,5.6,1,13.65,1,28.91,25.55,26,25.55,38.36c0,5.11-4.13,8.4-9.94,8.4A19,19,0,0,1,2.87,41.37Z"/><path class="a" d="M41.16,50.54H46V28.07H74.48V50.54h4.9V1.33h-4.9v22.4H46V1.33H41.16V50.54Z"/><path class="a" d="M90.16,25.55c0,14.49,10.71,25.83,25.06,25.83S140.28,40,140.28,25.55c0-14.07-10.64-25.06-25.06-25.06A24.6,24.6,0,0,0,90.16,25.55Zm5,0c0-11.62,8.54-20.51,20-20.51s20,8.89,20,20.51c0,12-8.47,21.28-20,21.28S95.2,37.59,95.2,25.55Z"/><path class="a" d="M151.2,50.54H156V31.22h12.18c8.75,0,15.19-5.88,15.19-15.05S177,1.33,168.21,1.33h-17V50.54ZM156,26.88V5.67h11.62c6.51,0,10.78,3.85,10.78,10.5s-4.27,10.71-10.85,10.71H156Z"/><path class="a" d="M189.07,25.62c0,15.61,11.27,25.76,24.36,25.76,5.67,0,11.2-2.17,14.42-5.32H228s-0.07,1-.07,2.1v2.38h7.7V24.36H219.87v7.77h7.63v5.81A18.39,18.39,0,0,1,215,43.12c-9.31,0-16.66-7.07-16.66-17.78,0-9.24,6-17.08,17.08-17.08A21.73,21.73,0,0,1,228.69,13l4.48-6.72c-5.11-4.41-12-6.3-18.48-6.3C199.92,0,189.07,11.2,189.07,25.62Z"/><path class="a" d="M245,32.69c0,11.13,8.05,18.69,20.09,18.69s20-7.56,20-18.69V0.84h-9V32.62c0,6.72-4.34,10.5-11,10.5s-11-3.78-11-10.5V0.84h-9V32.69Z"/><path class="a" d="M296.52,50.54h9V0.84h-9v49.7Z"/><path class="a" d="M317.59,50.54h16.94c15.33,0,25.34-9.24,25.34-24.92S349.86,0.84,334.53.84H317.59v49.7Zm9-7.77V8.61H334c9.94,0,16.52,6,16.52,17S344.12,42.77,334,42.77h-7.42Z"/><path class="a" d="M369.18,50.54H400V42.77H378.21V29.4h16.73V21.63H378.21v-13h20.72V0.84H369.18v49.7Z"/></svg>